<?xml version="1.0" standalone="no"?>
<!DOCTYPE svg PUBLIC "-//W3C//DTD SVG 20010904//EN"
 "http://www.w3.org/TR/2001/REC-SVG-20010904/DTD/svg10.dtd">
<svg version="1.0" xmlns="http://www.w3.org/2000/svg"
 width="3840.000000pt" height="2400.000000pt" viewBox="0 0 3840.000000 2400.000000"
 preserveAspectRatio="xMidYMid meet">

<g transform="translate(0.000000,2400.000000) scale(0.100000,-0.100000)"
fill="#000000" stroke="none">
<path d="M6823 16208 c-1 -7 -4 -80 -7 -163 -3 -82 -8 -170 -11 -195 -4 -40
-13 -226 -20 -415 -1 -38 -5 -117 -9 -175 -8 -133 -15 -285 -21 -425 -5 -122
-13 -272 -20 -385 -5 -70 -13 -238 -20 -410 -1 -41 -6 -125 -9 -185 -7 -114
-13 -244 -21 -425 -2 -58 -7 -148 -10 -200 -12 -218 -15 -281 -20 -405 -3 -71
-7 -164 -10 -205 -6 -90 -14 -244 -20 -395 -8 -162 -13 -267 -20 -385 -6 -114
-13 -249 -20 -430 -2 -63 -7 -149 -10 -190 -5 -80 -13 -241 -20 -405 -2 -55
-6 -140 -9 -190 -10 -176 -17 -301 -21 -400 -10 -211 -14 -303 -20 -395 -3
-52 -8 -147 -10 -210 -7 -174 -12 -278 -30 -600 -3 -47 -7 -146 -10 -220 -3
-74 -7 -160 -10 -190 -4 -55 -11 -195 -21 -405 -7 -158 -12 -264 -19 -395 -7
-126 -11 -216 -20 -420 -3 -74 -7 -155 -10 -180 -4 -41 -15 -260 -20 -405 -1
-33 -5 -127 -10 -209 l-7 -149 23 7 c22 6 630 140 939 206 74 16 304 65 510
110 206 45 456 99 555 120 1124 242 1388 300 1390 303 1 1 -98 679 -221 1507
-123 828 -348 2344 -499 3370 -152 1026 -325 2194 -385 2595 -59 402 -113 742
-120 757 -16 35 -47 45 -150 52 -47 3 -148 10 -225 16 -77 6 -178 13 -225 15
-47 3 -105 8 -130 10 -25 2 -89 7 -142 11 l-98 7 -317 314 c-175 173 -331 325
-348 337 -38 30 -71 41 -72 24z"/>
<path d="M33675 15628 c-424 -25 -823 -175 -1110 -418 -112 -95 -241 -230
-313 -327 -232 -316 -400 -741 -485 -1233 l-23 -135 -314 -5 -314 -5 -87 -470
c-49 -258 -88 -478 -89 -487 0 -17 21 -18 311 -18 l311 0 -6 -27 c-9 -43 -88
-460 -306 -1608 -111 -583 -241 -1271 -291 -1530 -49 -258 -89 -475 -89 -482
0 -10 130 -13 655 -13 367 0 655 4 655 9 0 9 50 275 445 2352 135 708 245
1289 245 1293 0 3 207 6 459 6 l459 0 6 28 c3 15 42 223 86 462 44 239 83 447
86 463 l6 27 -456 0 c-435 0 -456 1 -456 18 0 20 34 218 51 297 75 347 271
615 519 708 65 25 217 49 262 42 12 -2 57 -6 99 -9 41 -4 118 -18 169 -32 51
-13 97 -21 101 -17 14 15 290 1006 282 1013 -13 12 -134 48 -213 64 -164 32
-440 47 -655 34z"/>
<path d="M15616 15503 c-3 -10 -14 -67 -26 -128 -11 -60 -133 -695 -270 -1410
-137 -715 -292 -1525 -345 -1800 -52 -275 -124 -651 -160 -835 -35 -184 -125
-654 -200 -1045 -75 -390 -167 -869 -204 -1063 -45 -235 -64 -355 -57 -358 6
-2 301 -3 656 -2 l644 3 118 600 c64 330 162 834 218 1120 134 687 168 819
272 1070 86 205 153 326 269 480 116 156 270 286 405 343 172 72 394 35 489
-83 65 -80 92 -167 98 -315 9 -188 -20 -392 -143 -1015 -317 -1607 -430 -2181
-430 -2192 0 -10 130 -13 649 -13 361 0 652 4 655 9 3 5 94 474 201 1042 241
1272 318 1676 344 1799 51 248 89 662 76 850 -33 515 -243 834 -634 961 -289
93 -687 74 -1006 -50 -252 -97 -515 -285 -700 -499 -49 -56 -77 -81 -93 -81
-21 -1 -23 3 -18 27 3 15 116 596 251 1292 135 696 248 1275 251 1287 l6 23
-655 0 c-616 0 -656 -1 -661 -17z"/>
<path d="M30160 15439 c-318 -32 -595 -276 -664 -586 -23 -103 -21 -270 4
-369 32 -125 73 -199 159 -284 126 -125 248 -170 458 -170 204 0 352 42 491
140 85 60 147 131 201 231 64 119 84 207 85 379 0 162 -12 224 -67 339 -46 96
-158 207 -257 254 -120 56 -267 80 -410 66z"/>
<path d="M13010 13579 c-539 -48 -965 -221 -1269 -513 -209 -202 -341 -434
-409 -720 -24 -100 -26 -130 -26 -306 0 -167 3 -206 22 -272 62 -226 184 -422
380 -610 120 -116 261 -218 467 -341 275 -164 387 -252 466 -368 104 -153 108
-365 8 -503 -95 -133 -262 -196 -518 -196 -316 0 -735 107 -984 252 -26 15
-51 28 -55 28 -4 0 -16 -24 -26 -52 -38 -111 -200 -559 -252 -703 l-54 -150
22 -17 c41 -32 210 -115 308 -151 282 -105 613 -160 960 -159 283 1 486 25
725 87 685 178 1130 612 1241 1212 21 116 30 419 15 509 -68 393 -363 726
-936 1054 -242 138 -382 256 -440 370 -24 45 -29 71 -33 145 -6 129 17 186
112 280 129 128 279 178 526 177 221 -1 405 -38 668 -134 62 -22 114 -39 116
-37 5 5 286 893 286 902 0 15 -167 79 -314 121 -145 42 -239 60 -406 81 -150
19 -468 26 -600 14z"/>
<path d="M21657 13569 c-471 -50 -901 -227 -1277 -525 -102 -81 -322 -300
-406 -404 -243 -300 -451 -698 -559 -1071 -101 -348 -140 -617 -140 -964 1
-374 53 -631 185 -912 248 -527 724 -852 1352 -924 154 -17 490 -7 641 20 395
70 713 206 1032 441 554 409 957 1084 1104 1850 43 224 61 420 61 670 0 371
-61 652 -206 945 -285 578 -836 890 -1559 884 -82 -1 -185 -5 -228 -10z m213
-994 c88 -20 133 -41 208 -93 143 -99 234 -284 262 -531 30 -258 -44 -768
-165 -1136 -125 -379 -259 -621 -449 -810 -107 -106 -174 -151 -284 -193 -59
-23 -83 -26 -192 -27 -79 0 -144 5 -175 14 -220 62 -368 244 -426 526 -66 314
-7 817 147 1267 188 549 468 899 784 982 72 19 209 19 290 1z"/>
<path d="M26820 13566 c-290 -45 -571 -175 -834 -386 -90 -73 -239 -221 -303
-302 -32 -41 -53 -58 -69 -58 -20 0 -22 4 -18 33 5 39 64 629 64 645 0 9 -143
12 -583 12 l-583 0 -43 -322 c-119 -899 -151 -1101 -271 -1723 -83 -428 -168
-872 -469 -2435 -325 -1686 -381 -1979 -381 -1985 0 -3 295 -5 655 -5 l654 0
6 33 c4 17 86 453 183 967 145 763 180 935 193 938 9 2 38 -10 65 -26 260
-152 745 -198 1169 -111 1087 223 1936 1326 2090 2714 23 201 23 557 1 724
-55 414 -189 721 -416 952 -162 165 -355 268 -598 319 -125 27 -390 35 -512
16z m-210 -1092 c182 -43 299 -185 356 -433 24 -103 30 -445 11 -611 -53 -451
-239 -943 -475 -1255 -67 -88 -197 -219 -273 -276 -84 -62 -212 -122 -306
-143 -130 -29 -327 -14 -459 35 -57 22 -172 85 -211 116 l-21 18 43 235 c24
129 73 397 110 595 80 438 94 507 139 660 162 563 484 977 826 1060 75 18 181
18 260 -1z"/>
<path d="M29295 13458 c-2 -7 -8 -38 -14 -68 -11 -55 -600 -3127 -775 -4037
l-92 -483 652 0 c359 0 655 3 657 8 3 4 102 516 221 1137 118 622 314 1651
435 2287 122 636 221 1159 221 1162 0 3 -293 6 -650 6 -512 0 -652 -3 -655
-12z"/>
<path d="M34160 13465 c0 -7 492 -2612 657 -3475 80 -421 148 -794 150 -830
l4 -65 -68 -118 c-108 -186 -188 -292 -328 -432 -138 -139 -188 -178 -435
-336 -212 -136 -405 -233 -617 -309 -35 -13 -63 -25 -63 -29 0 -9 359 -1083
363 -1088 3 -2 56 13 118 33 578 185 999 461 1416 927 464 520 890 1180 1317
2042 276 555 1726 3629 1726 3658 l0 27 -642 -2 -641 -3 -62 -160 c-477 -1238
-782 -2037 -908 -2385 -242 -663 -229 -630 -254 -630 -13 0 -23 6 -23 13 0 7
-7 66 -15 132 -18 152 -49 462 -75 770 -11 132 -40 425 -64 650 -24 226 -72
681 -107 1013 l-63 602 -693 0 c-381 0 -693 -2 -693 -5z"/>
</g>
</svg>
